<svg width="29" height="29" viewBox="0 0 29 29" fill="none" xmlns="http://www.w3.org/2000/svg">
<path d="M14.5 29C22.5081 29 29 22.5081 29 14.5C29 6.49187 22.5081 0 14.5 0C6.49187 0 0 6.49187 0 14.5C0 22.5081 6.49187 29 14.5 29Z" fill="#3DAB24"/>
<path fill-rule="evenodd" clip-rule="evenodd" d="M14.2974 19.0833L17.9239 21.7625C18.5913 22.128 19.076 21.9373 19.2349 21.1428L21.6105 9.93211C21.8568 8.95485 21.237 8.50992 20.6014 8.80389L6.63377 14.1908C5.68035 14.5721 5.68829 15.1045 6.45898 15.3428L10.0423 16.4631L18.337 11.2272C18.7264 10.9888 19.0918 11.116 18.7899 11.3781L12.0875 17.4453L12.0771 17.4391L11.8387 21.1416C12.1966 21.1416 12.3564 20.9816 12.5493 20.7885C12.5535 20.7844 12.5576 20.7802 12.5618 20.7761L14.2974 19.0833Z" fill="url(#paint0_linear)"/>
<defs>
<linearGradient id="paint0_linear" x1="15.5195" y1="14.8493" x2="17.7888" y2="20.013" gradientUnits="userSpaceOnUse">
<stop stop-color="#EFF7FC"/>
<stop offset="1" stop-color="white"/>
</linearGradient>
</defs>
</svg>
