<svg width="29" height="29" viewBox="0 0 29 29" fill="none" xmlns="http://www.w3.org/2000/svg">
<path d="M14.6895 28.2393C12.2255 28.2393 9.85621 27.5738 7.86602 26.5279L0 29L2.55882 21.3934C1.23203 19.3016 0.56863 16.7344 0.56863 14.0721C0.56863 6.27541 6.9183 0 14.7843 0C22.6503 0 29 6.27541 29 14.0721C29 21.8689 22.4608 28.2393 14.6895 28.2393ZM14.6895 2.28197C8.15033 2.28197 2.74837 7.60655 2.74837 14.1672C2.74837 16.7344 3.60131 19.2066 5.02288 21.1082L3.50654 25.482L8.05556 24.0557C9.95098 25.2918 12.2255 26.0525 14.5948 26.0525C21.134 26.0525 26.5359 20.7279 26.5359 14.1672C26.5359 7.60655 21.2288 2.28197 14.6895 2.28197ZM21.7974 17.3049C21.7026 17.1148 21.5131 17.1148 21.134 16.9246C20.7549 16.7344 19.049 15.8787 18.7647 15.7836C18.4804 15.6885 18.1961 15.5934 18.0065 15.9738C17.817 16.3541 17.1536 17.1148 16.8693 17.3049C16.6797 17.4951 16.4902 17.5902 16.1111 17.4C15.732 17.2098 14.6895 16.8295 13.3627 15.6885C12.3203 14.7377 11.6569 13.5967 11.4673 13.3115C11.2778 12.9311 11.4673 12.741 11.6569 12.6459C11.8464 12.4557 12.0359 12.2656 12.1307 12.0754C12.3203 11.8852 12.3203 11.6951 12.5098 11.5049C12.6046 11.3148 12.6046 11.0295 12.5098 10.9344C12.415 10.7443 11.7516 9.03279 11.4673 8.36721C11.183 7.70164 10.8987 7.79672 10.7092 7.79672C10.5196 7.79672 10.2353 7.79672 10.0458 7.79672C9.85621 7.79672 9.47713 7.8918 9.09804 8.27213C8.81373 8.65246 7.86602 9.41312 7.86602 11.1246C7.86602 12.8361 9.09804 14.4525 9.28758 14.7377C9.47713 14.9279 11.6569 18.541 15.2582 19.9672C18.7647 21.3934 18.7647 20.918 19.4281 20.8229C20.0915 20.7279 21.5131 19.9672 21.7974 19.2066C21.8922 18.1607 21.8922 17.4951 21.7974 17.3049Z" fill="#3DAB24"/>
</svg>
